<?xml version="1.0" standalone="no"?>
<!DOCTYPE svg PUBLIC "-//W3C//DTD SVG 1.1//EN" "http://www.w3.org/Graphics/SVG/1.1/DTD/svg11.dtd" >
<svg xmlns="http://www.w3.org/2000/svg">
<metadata>
This is a custom SVG webfont generated by Font Squirrel.
</metadata>
<defs>
<font id="webfontLdGYADj7" horiz-adv-x="556" >
<font-face units-per-em="1000" ascent="798" descent="-202" />
<missing-glyph horiz-adv-x="278" />
<glyph unicode=" "  horiz-adv-x="278" />
<glyph unicode="&#x09;" horiz-adv-x="278" />
<glyph unicode="&#xa0;" horiz-adv-x="278" />
<glyph unicode="!" horiz-adv-x="333" d="M316 679q0 -22 -6.5 -39.5t-43.5 -96.5q-67 -147 -126 -361l-36 10q66 249 79 434q4 52 23.5 81.5t50.5 29.5q26 0 42.5 -16t16.5 -42zM154 47q0 -26 -18.5 -44t-44.5 -18q-25 0 -43 18.5t-18 43.5t18 43.5t44 18.5t44 -18.5t18 -43.5z" />
<glyph unicode="&#x22;" horiz-adv-x="400" d="M243 689q0 -13 -13 -32l-110 -147l-20 10l56 175q11 37 42 37q18 0 31.5 -13t13.5 -30zM395 689q0 -15 -13 -32l-110 -147l-20 10l56 175q11 37 42 37q18 0 31.5 -13t13.5 -30z" />
<glyph unicode="#" d="M497 220h-110l-32 -220h-65l32 220h-123l-32 -220h-65l32 220h-101v56h109l21 148h-103v56h111l30 206h65l-30 -206h123l30 206h65l-30 -206h100v-56h-108l-21 -148h102v-56zM330 276l21 148h-123l-21 -148h123z" />
<glyph unicode="$" d="M473 199q0 -59 -33.5 -107.5t-94.5 -77.5q-58 -27 -134 -28h-7l-33 -121h-43l34 124q-71 12 -115 54.5t-44 99.5q0 40 21.5 65.5t55.5 25.5q27 0 44.5 -16.5t17.5 -42.5q0 -43 -49 -57q-20 -5 -20 -18q0 -21 29.5 -41.5t69.5 -28.5l74 274l-6 3l-6 2q-63 26 -97 72 t-34 104q0 87 70 147.5t170 60.5h7l27 99h43l-28 -103q66 -12 105 -52t39 -96q0 -36 -18 -56.5t-49 -20.5q-25 0 -41.5 15.5t-16.5 38.5q0 35 34 52q17 9 17 21q0 16 -23 32t-58 24l-70 -259q46 -19 66 -31q96 -62 96 -158zM273 404l66 247q-73 -1 -114.5 -35.5t-41.5 -93.5 q0 -38 23 -69.5t62 -46.5zM385 163q0 85 -87 120q-7 3 -13 5l-70 -262q37 1 67 10q46 14 74.5 49t28.5 78z" />
<glyph unicode="%" horiz-adv-x="833" d="M651 722l-414 -722h-50l362 635q-53 -30 -97 -30q-29 0 -65 12q4 -23 4 -36q0 -95 -67 -177.5t-150 -82.5q-56 0 -92 35t-36 89q0 90 73.5 176.5t159.5 86.5q55 0 91 -47q39 -22 73 -22q101 0 162 83h46zM357 587q0 17 -6 43q-40 15 -64 43q-33 -11 -49.5 -28t-45.5 -67 q-62 -109 -62 -159q0 -27 16.5 -44.5t42.5 -17.5q61 0 114.5 73t53.5 157zM792 282q0 -89 -65 -178t-152 -89q-56 0 -93 34.5t-37 86.5q0 93 72 179t158 86q51 0 84 -33.5t33 -85.5zM757 280q0 35 -19 59.5t-46 24.5q-46 0 -91 -74q-74 -120 -74 -179q0 -25 17 -42.5 t42 -17.5q62 0 116.5 73.5t54.5 155.5z" />
<glyph unicode="&#x26;" horiz-adv-x="852" d="M753 125q-89 -140 -201 -140q-75 0 -130 58q-104 -58 -200 -58q-89 0 -143.5 51t-54.5 134q0 81 53 139.5t186 114.5q-8 60 -8 93q0 100 51 160t136 60q68 0 110 -36.5t42 -94.5q0 -67 -49.5 -111t-172.5 -79q44 -186 106 -270q110 102 110 159q0 49 -64 49h-17l6 43h260 l-5 -43q-50 -5 -78 -28.5t-83 -101.5q-47 -67 -100 -116q45 -52 91 -52q34 0 59.5 19t61.5 71zM523 609q0 35 -22.5 58.5t-56.5 23.5q-41 0 -65.5 -34t-24.5 -92q0 -40 10 -106q73 24 116 63t43 87zM392 80q-81 130 -121 299q-132 -66 -132 -183q0 -62 36.5 -108.5 t98.5 -46.5q56 0 118 39z" />
<glyph unicode="'" horiz-adv-x="278" d="M262 691q0 -15 -14 -34l-114 -147l-20 10l58 175q11 37 43 37q19 0 33 -12.5t14 -28.5z" />
<glyph unicode="(" horiz-adv-x="333" d="M399 713q-63 -33 -100.5 -66.5t-66.5 -83.5q-52 -89 -82.5 -208t-30.5 -233q0 -66 12.5 -116t45.5 -114l-21 -15q-116 144 -116 336q0 170 99 318.5t250 204.5z" />
<glyph unicode=")" horiz-adv-x="333" d="M265 400q0 -170 -98.5 -318t-249.5 -205l-10 23q63 34 100.5 67.5t65.5 82.5q52 90 82.5 208.5t30.5 233.5q0 65 -12.5 114.5t-44.5 114.5l21 15q115 -143 115 -336z" />
<glyph unicode="*" horiz-adv-x="500" d="M407 373q0 -18 -11.5 -29.5t-29.5 -11.5q-33 0 -47 39q-12 34 -19.5 46.5t-27.5 33.5l-23 24l-9 -33q-6 -21 -6 -41q0 -13 5 -51q2 -16 2 -19q0 -18 -13 -31.5t-31 -13.5q-16 0 -28 13t-12 31q0 17 17 37q23 29 30.5 41.5t14.5 39.5l9 32l-33 -8q-35 -10 -80 -46 q-21 -17 -37 -17q-18 0 -31 12t-13 29t13.5 30.5t31.5 13.5q3 0 19 -2q35 -6 49 -6q19 0 43 6l32 9l-23 24q-19 17 -33.5 25.5t-47.5 20.5q-39 16 -39 47q0 17 11.5 29t29.5 12q33 0 47 -39q13 -35 20.5 -48t26.5 -32l23 -24l9 33q6 21 6 42q0 17 -5 50q-2 16 -2 20 q0 17 13.5 30.5t30.5 13.5q16 0 28 -13t12 -31q0 -17 -17 -37q-23 -27 -30.5 -40t-14.5 -41l-9 -32l33 8q36 10 80 46q21 17 37 17q18 0 31 -12t13 -29t-14 -30.5t-31 -13.5q-3 0 -19 2q-33 7 -47 7q-13 0 -45 -7l-32 -9l24 -24q26 -26 79 -46q40 -16 40 -47z" />
<glyph unicode="+" horiz-adv-x="606" d="M561 210h-223v-223h-80v223h-223v80h223v223h80v-223h223v-80z" />
<glyph unicode="," horiz-adv-x="278" d="M151 29q0 -58 -48 -111.5t-129 -84.5l-13 31q113 52 127 131q-7 -1 -17 -1q-25 0 -40.5 14.5t-15.5 38.5q0 26 19.5 44t47.5 18q30 0 49.5 -22.5t19.5 -57.5z" />
<glyph unicode="-" horiz-adv-x="333" d="M237 195h-205l22 83h205z" />
<glyph unicode="." horiz-adv-x="278" d="M141 47q0 -26 -18.5 -44t-44.5 -18q-25 0 -43 18.5t-18 43.5t18.5 43.5t43.5 18.5t43.5 -18.5t18.5 -43.5z" />
<glyph unicode="/" horiz-adv-x="606" d="M466 722l-268 -830h-58l268 830h58z" />
<glyph unicode="0" d="M527 454q0 -121 -45 -230t-120 -174t-159 -65q-77 0 -125.5 69t-48.5 178q0 117 43 225.5t118 177.5t161 69q79 0 127.5 -69t48.5 -181zM430 531q0 133 -81 133q-62 0 -116 -90t-81.5 -205.5t-27.5 -210.5q0 -64 22 -98.5t62 -34.5q53 0 98 61.5t70.5 148t39.5 166.5 t14 130z" />
<glyph unicode="1" d="M420 0h-370l5 47h43q69 0 84 14q9 9 23 62l107 400q10 36 10 45q0 13 -11 16.5t-57 3.5h-69l12 44q54 0 123 22.5t110 53.5h29l-157 -585q-9 -41 -9 -49q0 -17 15 -22t64 -5h54z" />
<glyph unicode="2" d="M471 193l-77 -193h-429q7 42 62 100t253 229q68 59 95.5 105.5t27.5 102.5q0 53 -32.5 85t-84.5 32q-50 0 -96 -29.5t-46 -61.5q0 -9 5.5 -14.5t22.5 -14.5q46 -25 46 -61q0 -27 -18.5 -45.5t-46.5 -18.5q-35 0 -56 25t-21 67q0 82 71.5 142.5t167.5 60.5 q86 0 139.5 -48.5t53.5 -126.5q0 -59 -26.5 -106.5t-86.5 -93.5q-13 -10 -169 -119q-113 -79 -148 -125h232q36 0 53.5 13.5t45.5 62.5l26 46z" />
<glyph unicode="3" d="M458 220q0 -100 -76.5 -167.5t-189.5 -67.5q-90 0 -142 42.5t-52 115.5q0 39 19.5 62.5t51.5 23.5q26 0 45 -18.5t19 -43.5q0 -40 -41 -58q-20 -9 -20 -22q0 -24 31.5 -42t72.5 -18q80 0 127 60.5t47 151.5q0 46 -22 75t-57 29q-8 0 -29.5 -3t-28.5 -3q-29 0 -29 26 q0 28 34 28q0 -4 58 -4q50 0 90 53.5t40 119.5q0 46 -28.5 72.5t-78.5 26.5q-35 0 -66 -15.5t-31 -33.5q0 -5 17.5 -29t17.5 -39q0 -25 -16 -41t-41 -16q-28 0 -45.5 19t-17.5 50q0 61 59.5 105.5t141.5 44.5q83 0 135.5 -44.5t52.5 -114.5q0 -58 -35 -102.5t-97 -67.5 q-21 -6 -34 -11q118 -38 118 -144z" />
<glyph unicode="4" d="M438 0h-311l6 47h18q69 0 84 14q6 5 8.5 12.5t14.5 49.5l16 61h-282v42l466 482h54l-126 -470h114l-14 -54h-114l-17 -61q-10 -36 -10 -49q0 -17 15.5 -22t64.5 -5h18zM289 238l85 318l-309 -318h224z" />
<glyph unicode="5" d="M480 274q0 -119 -86 -204t-207 -85q-79 0 -131 43t-52 109q0 36 22 60.5t55 24.5q26 0 43 -16t17 -40q0 -33 -26 -51l-22 -11q-16 -11 -16 -17q0 -25 32 -43t75 -18q77 0 132 69.5t55 166.5q0 62 -30 95.5t-86 33.5q-57 0 -103 -36q-5 -56 -44 -56q-15 0 -25.5 10 t-10.5 24t8.5 24.5t31.5 25.5l91 321q110 -29 205 -29q55 0 114 25l10 4q8 0 8 -12q0 -37 -56 -71.5t-129 -34.5q-52 0 -131 16l-56 -189q69 33 126 33q82 0 134 -48.5t52 -123.5z" />
<glyph unicode="6" d="M492 256q0 -111 -75 -191t-186 -80q-91 0 -143 63t-52 173q0 82 28.5 168t76 156t114.5 114.5t139 44.5q67 0 110 -33.5t43 -84.5q0 -34 -19 -54.5t-50 -20.5q-26 0 -42 15t-16 39q0 12 11 38t11 30q0 14 -13.5 22.5t-36.5 8.5q-80 0 -143 -93.5t-91 -235.5q61 94 165 94 q75 0 122 -48t47 -125zM387 250q0 58 -25.5 89.5t-71.5 31.5q-69 0 -115 -62.5t-46 -155.5q0 -60 27 -93.5t75 -33.5q66 0 111 64.5t45 159.5z" />
<glyph unicode="7" d="M561 674l-94 -146q-104 -169 -143 -253t-76 -225q-10 -35 -25.5 -50t-42.5 -15t-42.5 15.5t-15.5 42.5q0 50 62 150q49 80 177 260l109 156h-169q-79 0 -107 -14.5t-64 -73.5l-24 -40l-37 12l97 211l25 -1l101 -6q54 -3 95 -3q87 0 174 10v-30z" />
<glyph unicode="8" d="M480 209q0 -97 -74.5 -160.5t-189.5 -63.5q-96 0 -152 42.5t-56 114.5q0 140 181 209q-40 29 -57.5 61t-17.5 78q0 90 66 152t163 62q80 0 132 -44t52 -112q0 -60 -33 -99t-118 -79q59 -38 81.5 -74.5t22.5 -86.5zM452 554q0 47 -33 77t-84 30q-58 0 -99.5 -36t-41.5 -87 q0 -43 31.5 -75.5t107.5 -69.5q52 18 85.5 63.5t33.5 97.5zM393 164q0 50 -37 83t-129 77q-138 -62 -138 -170q0 -58 37 -91.5t101 -33.5q70 0 118 39t48 96z" />
<glyph unicode="9" d="M519 454q0 -105 -47 -213t-131.5 -182t-180.5 -74q-67 0 -110 33t-43 84q0 32 19 53t49 21q26 0 43 -16.5t17 -41.5q0 -12 -12.5 -35t-12.5 -26q0 -30 50 -30q77 0 138.5 82.5t94.5 232.5q-67 -85 -163 -85q-72 0 -121 48t-49 119q0 107 75.5 193.5t184.5 86.5 q93 0 146 -66.5t53 -183.5zM424 531q0 60 -28.5 95.5t-76.5 35.5q-65 0 -109 -68t-44 -160q0 -56 25.5 -87t72.5 -31q69 0 114.5 61t45.5 154z" />
<glyph unicode=":" horiz-adv-x="278" d="M166 47q0 -26 -18.5 -44t-44.5 -18q-25 0 -43 18.5t-18 43.5t18 43.5t44 18.5t44 -18.5t18 -43.5zM254 401q0 -26 -18.5 -44t-44.5 -18q-25 0 -43 18.5t-18 43.5t18 43.5t44 18.5t44 -18.5t18 -43.5z" />
<glyph unicode=";" horiz-adv-x="278" d="M261 401q0 -26 -18.5 -44t-44.5 -18q-25 0 -43 18.5t-18 43.5t18.5 43.5t43.5 18.5t43.5 -18.5t18.5 -43.5zM176 29q0 -58 -47.5 -111t-129.5 -85l-13 32q113 51 127 130q-7 -1 -17 -1q-25 0 -40.5 14.5t-15.5 38.5q0 26 19.5 44t47.5 18q30 0 49.5 -22.5t19.5 -57.5z " />
<glyph unicode="&#x3c;" horiz-adv-x="606" d="M521 -15l-464 229v72l464 229v-90l-356 -175l356 -175v-90z" />
<glyph unicode="=" horiz-adv-x="606" d="M561 300h-526v80h526v-80zM561 120h-526v80h526v-80z" />
<glyph unicode="&#x3e;" horiz-adv-x="606" d="M521 214l-464 -229v90l356 175l-356 175v90l464 -229v-72z" />
<glyph unicode="?" horiz-adv-x="444" d="M417 598q0 -63 -37 -108.5t-146 -115.5q-67 -43 -67 -88q0 -23 12 -36t33 -13q30 0 47.5 16.5t30.5 56.5l36 -6q-9 -47 -40.5 -76t-74.5 -29q-42 0 -68 27.5t-26 72.5q0 53 35.5 101.5t123.5 116.5q43 33 60.5 58.5t17.5 53.5t-21.5 47.5t-53.5 19.5q-59 0 -93 -41.5 t-34 -128.5h-38q-1 11 -1 24q0 82 47.5 134.5t120.5 52.5q60 0 98 -39t38 -100zM226 47q0 -26 -18.5 -44t-44.5 -18q-25 0 -43 18.5t-18 43.5t18 43.5t44 18.5t44 -18.5t18 -43.5z" />
<glyph unicode="@" horiz-adv-x="747" d="M702 188q-37 -85 -122 -143.5t-187 -58.5q-155 0 -260 106.5t-105 263.5q0 162 105.5 271t259.5 109q139 0 237 -88t98 -213q0 -107 -77.5 -197.5t-169.5 -90.5q-31 0 -50 18t-19 47q0 12 1 20q-29 -43 -53.5 -61t-54.5 -18q-52 0 -88.5 42t-36.5 107q0 91 63 166t138 75 q59 0 78 -65l16 56h88l-73 -289q-4 -16 -4 -30q0 -11 7.5 -17.5t19.5 -6.5q52 0 107.5 78t55.5 160q0 102 -81.5 179t-195.5 77q-137 0 -226 -91.5t-89 -232.5t89.5 -232.5t227.5 -91.5q155 0 240 151h61zM440 430q0 33 -12 52.5t-33 19.5q-33 0 -63 -43t-46 -96t-16 -92 q0 -37 12.5 -57.5t35.5 -20.5q29 0 58 40t46.5 95.5t17.5 101.5z" />
<glyph unicode="A" horiz-adv-x="704" d="M663 0h-301l5 47h23q42 0 53.5 7t11.5 29q0 8 -4 32l-23 123h-255l-55 -96q-18 -30 -18 -55q0 -23 15 -31.5t54 -8.5h24l-6 -47h-269l5 47q41 0 74.5 27.5t73.5 93.5l330 569h41l125 -629q8 -39 21.5 -50t54.5 -11h25zM420 285l-57 287l-163 -287h220z" />
<glyph unicode="B" horiz-adv-x="722" d="M630 206q0 -98 -76 -152t-222 -54h-363l5 47h15q57 0 73 14q8 8 23 62l128 476q9 36 9 49q0 17 -15 22t-64 5h-26l6 47h301q123 0 183.5 -43.5t60.5 -123.5q0 -73 -51 -120t-144 -64q157 -47 157 -165zM549 570q0 55 -28 80t-90 25h-29q-39 0 -51 -11t-24 -57l-58 -213 h83q97 0 147 47t50 129zM508 225q0 62 -44.5 92t-143.5 30h-63l-64 -238q-6 -23 -6 -35q0 -16 14.5 -21.5t55.5 -5.5h50q99 0 150 50.5t51 127.5z" />
<glyph unicode="C" horiz-adv-x="722" d="M634 205q-49 -115 -122.5 -167.5t-177.5 -52.5q-133 0 -213.5 80.5t-80.5 214.5q0 115 56.5 221t150 171t195.5 65q108 0 175 -80l60 58h36l-56 -280h-41q-5 137 -46 198t-120 61q-63 0 -118 -43.5t-90.5 -111t-56 -146.5t-20.5 -153q0 -92 48 -149t138 -57 q81 0 137 42.5t105 146.5z" />
<glyph unicode="D" horiz-adv-x="778" d="M735 435q0 -100 -47.5 -197t-127.5 -161q-52 -41 -121 -59t-175 -18h-302l5 47h20q53 0 68 14q8 8 23 62l128 476q9 36 9 49q0 17 -15 22t-64 5h-26l6 47h290q84 0 136 -12t89 -40q104 -78 104 -235zM614 489q0 186 -188 186h-30q-40 0 -52 -10.5t-24 -54.5l-133 -500 q-6 -22 -6 -31q0 -32 46 -32h32q140 0 206 57q61 53 105 167.5t44 217.5z" />
<glyph unicode="E" horiz-adv-x="722" d="M642 245l-78 -245h-601l5 47h19q54 0 69 14q9 9 23 62l128 476q9 36 9 49q0 17 -15 22t-64 5h-26l6 47h584l-39 -241h-45v35q0 90 -35 124.5t-104 34.5h-58q-56 0 -71.5 -10.5t-28.5 -58.5l-55 -205h33q71 0 108.5 28.5t59.5 96.5l45 -6l-89 -334l-45 8q9 41 9 69 q0 47 -23.5 69t-77.5 22h-32l-59 -220q-11 -42 -11 -55q0 -18 15.5 -25t54.5 -7h54q105 0 164.5 39.5t124.5 158.5l5 8z" />
<glyph unicode="F" horiz-adv-x="667" d="M659 481h-45v35q0 52 -8 79.5t-29 46.5q-37 33 -102 33h-52q-56 0 -71.5 -10.5t-28.5 -58.5l-55 -205h33q71 0 108.5 28.5t59.5 96.5l45 -6l-89 -334l-45 8q9 41 9 69q0 47 -23.5 69t-77.5 22h-32l-62 -231q-10 -41 -10 -49q0 -17 15 -22t64 -5h26l-5 -47h-318l5 47h22 q34 0 45.5 3t20.5 11q9 9 23 62l128 476q9 36 9 49q0 17 -15 22t-64 5h-26l6 47h578z" />
<glyph unicode="G" horiz-adv-x="778" d="M757 285h-21q-47 0 -63 -13q-8 -6 -11.5 -15t-14.5 -48l-60 -223h-44l-12 81q-47 -44 -96.5 -63t-120.5 -19q-129 0 -202 76t-73 212q0 111 56 218.5t153.5 176.5t206.5 69q61 0 105 -20t83 -64l62 62h34l-55 -281l-42 7q-2 126 -48.5 189.5t-130.5 63.5 q-136 0 -225 -169q-35 -68 -56 -149.5t-21 -153.5q0 -91 47.5 -142.5t130.5 -51.5q148 0 188 150l18 80v5q0 13 -17 17.5t-62 4.5h-33l5 47h325z" />
<glyph unicode="H" horiz-adv-x="833" d="M713 0h-317l5 47h17q56 0 71 14q8 8 23 62l61 231h-321l-62 -231q-10 -41 -10 -49q0 -17 15 -22t64 -5h26l-5 -47h-318l5 47h15q58 0 73 14q9 9 23 62l128 476q9 36 9 49q0 17 -15 22t-64 5h-26l6 47h317l-5 -47h-17q-56 0 -70 -14q-7 -5 -10 -13t-13 -49l-54 -198h322 l53 198q10 34 10 49q0 17 -15 22t-64 5h-26l5 47h318l-5 -47h-17q-56 0 -71 -14q-6 -5 -9 -13t-14 -49l-128 -476q-9 -34 -9 -49q0 -17 15 -22t64 -5h26z" />
<glyph unicode="I" horiz-adv-x="407" d="M277 0h-310l5 47q70 1 84 14q9 9 23 62l128 476q10 39 10 49q0 17 -15.5 22t-64.5 5h-22l6 47h310l-5 -47q-70 -1 -84 -14q-9 -9 -23 -62l-128 -476q-10 -38 -10 -48q0 -17 15.5 -22.5t64.5 -5.5h22z" />
<glyph unicode="J" horiz-adv-x="611" d="M641 675h-18q-49 0 -63 -14q-6 -6 -9.5 -14.5t-13.5 -47.5l-109 -407q-29 -107 -89.5 -157t-160.5 -50q-90 0 -140.5 41.5t-50.5 116.5q0 61 35 103t86 42q35 0 57 -19.5t22 -51.5q0 -31 -18.5 -50.5t-47.5 -19.5q-9 0 -28.5 8.5t-31.5 8.5q-11 0 -18.5 -9t-7.5 -23 q0 -44 35 -74t87 -30q63 0 100.5 43.5t65.5 147.5l102 380q10 40 10 49q0 17 -15 22t-64 5h-30l6 47h314z" />
<glyph unicode="K" horiz-adv-x="741" d="M691 0h-327l5 47h33q40 0 54 3.5t14 14.5q0 6 -16 39l-117 246l-113 -93l-36 -134q-10 -41 -10 -49q0 -17 15 -22t64 -5h26l-5 -47h-318l5 47h19q54 0 69 14q6 5 9.5 14t13.5 48l128 476q9 36 9 49q0 17 -15 22t-64 5h-26l6 47h317l-5 -47h-17q-56 0 -70 -14 q-7 -5 -10 -13t-14 -49l-68 -257l288 240q54 44 54 68q0 14 -12.5 19.5t-46.5 5.5h-22l6 47h300l-5 -47q-60 -5 -101 -24.5t-100 -73.5l-188 -157l152 -315q21 -43 32.5 -50.5t61.5 -7.5h31z" />
<glyph unicode="L" horiz-adv-x="667" d="M630 245l-78 -245h-589l5 47h19q54 0 69 14q9 9 23 62l128 476q9 36 9 49q0 17 -15 22t-64 5h-26l6 47h336l-6 -47h-22q-69 0 -83 -14q-7 -6 -9.5 -14t-13.5 -48l-125 -465q-11 -41 -11 -55q0 -18 15.5 -25t54.5 -7h42q106 0 167 42.5t127 163.5z" />
<glyph unicode="M" horiz-adv-x="944" d="M819 0h-317l5 47h17q56 0 71 14q8 8 23 62l132 493l-386 -616h-36l-62 602l-103 -385q-23 -93 -23 -115q0 -55 89 -55l-5 -47h-250l5 47q54 2 78 33t52 137l102 382q10 38 10 49q0 17 -15 22t-64 5h-26l5 47h242l53 -540l341 540h216l-5 -47h-14q-59 0 -74 -14 q-6 -5 -9 -13t-14 -49l-127 -476q-10 -33 -10 -49q0 -17 15 -22t64 -5h26z" />
<glyph unicode="N" horiz-adv-x="815" d="M854 675q-63 -2 -88.5 -32t-53.5 -138l-139 -519h-39l-278 601l-99 -370q-24 -93 -24 -115q0 -29 18 -42t62 -13h21l-6 -47h-276l5 47q46 1 69 14t39.5 46.5t36.5 109.5l114 426q-6 20 -17.5 26t-47.5 6h-52l5 47h211l253 -552l90 335q23 93 23 115q0 55 -90 55l6 47h262 z" />
<glyph unicode="O" horiz-adv-x="778" d="M735 450q0 -118 -56.5 -225t-155 -173.5t-211.5 -66.5q-125 0 -198.5 78.5t-73.5 211.5q0 121 59.5 228.5t155.5 170.5t202 63q120 0 199 -80.5t79 -206.5zM618 496q0 89 -38.5 143.5t-119.5 54.5q-101 0 -179 -100q-49 -63 -86 -179.5t-37 -207.5q0 -83 42 -131t114 -48 q59 0 110.5 30.5t85.5 85.5q47 75 77.5 175t30.5 177z" />
<glyph unicode="P" horiz-adv-x="667" d="M663 541q0 -123 -109 -182q-52 -27 -97 -34t-182 -7h-28l-52 -195q-7 -27 -10 -49q0 -17 15 -22t64 -5h26l-5 -47h-318l5 47h15q58 0 73 14q8 8 23 62l128 476q9 36 9 49q0 17 -15 22t-64 5h-26l6 47h295q247 0 247 -181zM551 552q0 67 -33 95t-112 28h-12 q-31 0 -43.5 -9.5t-20.5 -38.5l-70 -262h29q65 -1 102 2q80 8 120 58.5t40 126.5z" />
<glyph unicode="Q" horiz-adv-x="778" d="M658 -60q-35 -65 -72 -96.5t-86 -31.5q-50 0 -82.5 38.5t-32.5 98.5q0 20 4 43q-35 -7 -66 -7q-132 0 -207.5 78t-75.5 215q0 119 57 225t152.5 170t202.5 64q124 0 203.5 -78.5t79.5 -211.5q0 -250 -237 -420v-22q1 -62 12 -89t38 -27q40 0 75 73zM615 505 q0 188 -160 188q-83 0 -153.5 -78t-107.5 -190.5t-37 -224.5q0 -80 38 -128q-9 30 -9 51q0 63 41.5 103.5t105.5 40.5q65 0 105 -39t47 -112q60 83 95 187.5t35 201.5zM396 45q9 50 9 72q0 46 -23.5 73.5t-63.5 27.5q-41 0 -68 -28.5t-27 -71.5q0 -42 26 -65.5t72 -23.5 q35 0 75 16z" />
<glyph unicode="R" horiz-adv-x="741" d="M673 132q-29 -79 -62 -113t-81 -34q-47 0 -76.5 33.5t-29.5 87.5q0 24 6 100q3 32 3 54q0 49 -26.5 69.5t-89.5 20.5h-69l-61 -227q-7 -27 -10 -49q0 -17 15 -22t64 -5h26l-5 -47h-318l5 47h16q57 0 72 14q9 9 23 62l128 476q9 36 9 49q0 17 -15 22t-64 5h-26l6 47h320 q258 0 258 -164q0 -49 -27.5 -91.5t-74.5 -66.5q-48 -24 -153 -36q55 -20 79 -58.5t24 -103.5q0 -5 -0.5 -17t-0.5 -19l-1 -51q-1 -61 30 -61q21 0 36 20t34 73zM571 565q0 53 -34.5 81.5t-97.5 28.5h-49q-35 0 -47.5 -11t-23.5 -49l-59 -218h78q63 0 93 5.5t58 21.5 q82 49 82 141z" />
<glyph unicode="S" horiz-adv-x="667" d="M569 214q0 -99 -76 -164t-193 -65q-122 0 -206 78l-59 -63h-35l55 285l40 -7q-1 -11 -1 -28q0 -101 56 -161.5t149 -60.5q77 0 125.5 39.5t48.5 103.5q0 55 -44 87q-12 8 -78 36l-86 36q-84 35 -115.5 78t-31.5 105q0 95 69.5 159.5t170.5 64.5q107 0 182 -74l54 52h38 l-54 -261l-42 7q1 9 1 20q0 99 -46 156t-126 57q-67 0 -111.5 -37.5t-44.5 -93.5q0 -39 27.5 -67.5t86.5 -51.5l85 -34q90 -36 125.5 -79.5t35.5 -116.5z" />
<glyph unicode="T" horiz-adv-x="685" d="M684 447l-42 5q2 41 2 70q0 81 -27.5 117t-94.5 36h-14q-23 0 -31.5 -9t-18.5 -47l-133 -496q-9 -34 -9 -49q0 -17 15 -22t64 -5h37l-6 -47h-346l5 47h22q69 0 84 14q9 9 23 62l136 510q5 18 5 25q0 17 -33 17h-14q-67 0 -110 -41.5t-117 -175.5l-41 6l88 258h598z" />
<glyph unicode="U" horiz-adv-x="815" d="M855 675q-36 -2 -53 -5.5t-33.5 -23.5t-26 -48.5t-27.5 -92.5l-56 -211q-33 -126 -68.5 -189.5t-92.5 -91.5t-155 -28q-122 0 -186 49t-64 142q0 46 20 118l82 305q9 36 9 49q0 17 -15 22t-64 5h-25l5 47h318l-6 -47h-18q-55 0 -69 -14q-7 -6 -9.5 -12.5t-13.5 -49.5 l-90 -333q-14 -49 -14 -103q0 -64 42.5 -99.5t118.5 -35.5q114 0 174 84q18 25 30 58.5t35 119.5l58 215q23 93 23 115q0 29 -22.5 42t-70.5 13l6 47h263z" />
<glyph unicode="V" horiz-adv-x="704" d="M767 675q-53 -5 -84.5 -34t-89.5 -128l-297 -528h-37l-117 592q-12 60 -27 79t-51 19h-28l7 47h295l-5 -47h-34q-37 0 -48.5 -6t-11.5 -26q0 -15 8 -52l87 -436l223 401q31 54 31 78q0 41 -75 41h-18l5 47h272z" />
<glyph unicode="W" horiz-adv-x="926" d="M968 675q-51 -11 -75.5 -37t-59.5 -106l-238 -547h-38l-70 505l-227 -505h-35l-79 602q-8 61 -19 72q-13 16 -48 16h-26l5 47h267l-6 -47h-20q-31 0 -43 -6.5t-12 -23.5q0 -11 5 -46l54 -403l168 383l-7 50q-5 33 -14.5 39.5t-55.5 6.5h-18l5 47h278l-5 -47h-19 q-36 0 -48.5 -5.5t-12.5 -21.5q0 -7 2 -27l54 -425l163 376q23 55 23 72q0 31 -64 31h-17l5 47h233z" />
<glyph unicode="X" horiz-adv-x="704" d="M645 0h-321l6 47h31q36 0 48.5 4.5t12.5 18.5q0 12 -6 25l-90 214l-151 -159q-39 -41 -39 -68q0 -35 62 -35h21l-6 -47h-286l5 47q52 7 85 27t89 79l197 207l-104 245q-20 47 -37 58.5t-66 11.5h-24l5 47h315l-5 -47h-18q-67 0 -67 -28q0 -8 10 -32l72 -172l122 125 q48 51 48 78q0 29 -52 29h-20l5 47h283l-5 -47q-52 -1 -85.5 -19.5t-91.5 -77.5l-182 -186l116 -272q22 -52 37 -62.5t65 -10.5h26z" />
<glyph unicode="Y" horiz-adv-x="685" d="M753 675q-54 -3 -86 -24t-85 -87l-200 -256l-50 -185q-10 -41 -10 -49q0 -17 15.5 -22t64.5 -5h36l-5 -47h-347l6 47h22q69 0 83 14q7 6 9.5 13.5t13.5 48.5l50 185l-120 298q-17 42 -37 55.5t-64 13.5h-17l5 47h308l-5 -47h-28q-61 0 -61 -24q0 -11 11 -38l100 -249 l170 218q26 31 26 54q0 18 -17 28.5t-47 10.5h-23l5 47h282z" />
<glyph unicode="Z" horiz-adv-x="667" d="M611 256l-82 -256h-554l6 38l533 637h-96q-122 0 -177 -42q-13 -10 -21 -17t-17.5 -18.5t-18.5 -26.5l-24 -39q-16 -25 -36 -60l-41 11l81 239h503l-6 -39l-534 -636h135q118 0 178 42.5t129 178.5z" />
<glyph unicode="[" horiz-adv-x="333" d="M207 -76l-9 -32h-231l223 830h220l-9 -33h-135l-205 -765h146z" />
<glyph unicode="\" horiz-adv-x="606" d="M522 0h-54l-379 708h54z" />
<glyph unicode="]" horiz-adv-x="333" d="M359 722l-223 -830h-219l9 33h134l205 765h-146l9 32h231z" />
<glyph unicode="^" horiz-adv-x="606" d="M554 318h-87l-163 311l-165 -311h-87l209 404h85z" />
<glyph unicode="_" horiz-adv-x="500" d="M500 -123h-500v42h500v-42z" />
<glyph unicode="`" horiz-adv-x="333" d="M391 525h-39l-108 96q-15 17 -4 39q7 14 23.5 24.5t30.5 10.5q11 0 18 -6t16 -24z" />
<glyph unicode="a" horiz-adv-x="574" d="M523 141q-17 -38 -49 -83q-52 -73 -117 -73q-27 0 -44 18t-17 47q0 13 5 32q-37 -54 -71 -75.5t-81 -21.5q-67 0 -107.5 44.5t-40.5 118.5q0 125 81 230q72 92 165 92q49 0 83 -29.5t39 -75.5l27 90h87l-100 -336q-11 -39 -11 -54q0 -10 6.5 -17.5t14.5 -7.5q40 0 99 118 zM289 126q51 104 51 200q0 41 -20.5 65t-55.5 24q-47 0 -80 -35q-40 -41 -66 -110.5t-26 -135.5q0 -46 21.5 -72t58.5 -26q72 0 117 90z" />
<glyph unicode="b" d="M488 300q0 -140 -101 -238q-80 -77 -192 -77q-74 0 -118.5 39t-44.5 104q0 31 14 79l120 404q9 33 9 43q0 17 -13 24.5t-44 7.5h-24l4 36l192 15l-106 -358q42 50 78 70.5t79 20.5q67 0 107 -46.5t40 -123.5zM389 305q0 49 -21.5 76.5t-59.5 27.5q-74 0 -132 -91 q-59 -98 -59 -198q0 -46 22.5 -71.5t63.5 -25.5q77 0 132 92q54 91 54 190z" />
<glyph unicode="c" horiz-adv-x="444" d="M370 110q-80 -125 -193 -125q-78 0 -125 49.5t-47 131.5q0 120 80.5 212t185.5 92q54 0 92 -31.5t38 -76.5q0 -32 -18 -53.5t-45 -21.5q-23 0 -38 13.5t-15 35.5q0 32 37 48q16 6 16 15q0 13 -20 23t-44 10q-63 0 -115 -74q-62 -89 -62 -206q0 -56 24.5 -87.5t68.5 -31.5 q75 0 151 99z" />
<glyph unicode="d" horiz-adv-x="611" d="M564 140q-82 -155 -175 -155q-68 0 -68 71q0 14 1 22q-64 -93 -162 -93q-70 0 -113.5 46t-43.5 119q0 124 85 222t193 98q56 0 90 -36q15 -17 25 -46l66 223q9 30 9 44q0 31 -57 31h-31l4 36l199 15l-178 -600q-15 -53 -15 -72q0 -27 25 -27t48.5 24.5t67.5 95.5z M369 334q0 40 -24 65.5t-61 25.5q-74 0 -131 -99q-53 -93 -53 -186q0 -49 24.5 -78.5t64.5 -29.5q73 0 123 97q24 46 40.5 105.5t16.5 99.5z" />
<glyph unicode="e" horiz-adv-x="444" d="M363 89q-80 -104 -196 -104q-81 0 -127 46t-46 127q0 122 84.5 217t193.5 95q53 0 86 -28.5t33 -74.5q0 -90 -120 -143q-51 -23 -182 -54q-2 -26 -2 -34q0 -48 26 -76t71 -28q74 0 155 84zM307 373q0 26 -15 41.5t-40 15.5q-55 0 -98 -60t-60 -161q67 14 102 30 q111 49 111 134z" />
<glyph unicode="f" horiz-adv-x="333" d="M470 646q0 -23 -15.5 -38t-38.5 -15q-22 0 -37 13t-15 32q0 14 9 28q7 12 7 18q0 17 -24 17q-53 0 -88 -86q-21 -50 -49 -160h129l-14 -47h-126l-62 -247q-50 -198 -104 -345l-110 -18q94 209 148 436l41 174h-89l13 47h87q33 121 70 181q60 100 157 100q48 0 79.5 -25.5 t31.5 -64.5z" />
<glyph unicode="g" horiz-adv-x="537" d="M399 -40q0 -74 -68 -118q-67 -44 -205 -44q-113 0 -169 39q-36 28 -36 73q0 54 49 83q27 17 79 28q-55 27 -55 74q0 41 33 67q29 25 90 33q-62 33 -62 104q0 69 61 120t144 51q43 0 86 -19q68 54 114 54q26 0 44.5 -15.5t18.5 -36.5q0 -19 -11.5 -31.5t-28.5 -12.5 q-12 0 -19 5t-19 21t-26 16q-15 0 -37 -19q59 -42 59 -111q0 -34 -18 -69t-47 -58q-53 -42 -135 -42q-24 0 -72 7q-21 3 -41 3q-26 0 -43 -11.5t-17 -28.5q0 -26 37 -35q17 -4 110 -9q89 -5 132 -28q52 -28 52 -90zM352 352q0 37 -23 58.5t-62 21.5q-54 0 -87.5 -42.5 t-33.5 -110.5q0 -42 23.5 -66t64.5 -24q48 0 77 34q41 51 41 129zM322 -69q0 37 -37 52q-17 7 -61.5 13.5t-78.5 6.5q-67 0 -105 -22.5t-38 -63.5q0 -77 142 -77q86 0 132 23.5t46 67.5z" />
<glyph unicode="h" horiz-adv-x="611" d="M555 133q-40 -71 -87.5 -109.5t-94.5 -38.5q-30 0 -50 21.5t-20 53.5q0 28 18 83l53 156q15 46 15 70q0 18 -12.5 29.5t-31.5 11.5q-72 0 -143 -103q-27 -38 -40.5 -70t-33.5 -98l-41 -139h-87l181 611q9 31 9 44q0 31 -57 31h-31l4 36l199 15l-119 -402q98 135 188 135 q43 0 72 -28t29 -70q0 -44 -24 -112l-47 -138q-19 -53 -19 -67q0 -8 5 -13.5t13 -5.5q47 0 123 118z" />
<glyph unicode="i" horiz-adv-x="333" d="M282 140q-38 -58 -62 -85q-60 -69 -124 -69q-29 0 -49 18t-20 44q0 24 22 101l58 195q9 33 9 44q0 31 -57 31h-24l4 36l192 15l-106 -357q-12 -42 -12 -56q0 -21 17 -21q42 0 121 121zM270 610q0 -20 -14.5 -34.5t-34.5 -14.5t-34.5 14.5t-14.5 34.5t14.5 34.5t34.5 14.5 t34.5 -14.5t14.5 -34.5z" />
<glyph unicode="j" horiz-adv-x="315" d="M279 470l-119 -400q-32 -109 -45.5 -141.5t-35.5 -60.5q-61 -70 -143 -70q-47 0 -74.5 21.5t-27.5 58.5q0 26 15.5 43t40.5 17q21 0 34.5 -13t13.5 -34q0 -12 -8 -27q-5 -8 -5 -14q0 -7 6.5 -12.5t14.5 -5.5q66 0 108 163q17 69 25 92l76 257q9 30 9 43q0 17 -13 24.5 t-44 7.5h-35l4 36zM317 610q0 -20 -14.5 -34.5t-34.5 -14.5t-34.5 14.5t-14.5 34.5t14.5 34.5t34.5 14.5t34.5 -14.5t14.5 -34.5z" />
<glyph unicode="k" d="M492 134q-47 -78 -86.5 -113.5t-80.5 -35.5q-74 0 -74 100l1 49v37q0 27 -16 27l-20 -2l-14 -1q-9 0 -15.5 6.5t-6.5 15.5q0 27 31 27q15 0 27 -5l13 -3q10 0 42 16q97 48 97 107q0 22 -13 36.5t-33 14.5q-28 0 -64.5 -25t-69.5 -67q-24 -31 -49.5 -84t-40.5 -104 l-38 -130h-87l181 611q9 33 9 44q0 31 -57 31h-31l4 36l199 15l-124 -418q51 79 98 115t99 36q41 0 69.5 -26.5t28.5 -64.5q0 -102 -183 -167q24 -20 34 -45t14 -77q2 -30 6 -39.5t15 -9.5q18 0 39.5 23.5t64.5 89.5z" />
<glyph unicode="l" horiz-adv-x="333" d="M268 140q-91 -155 -187 -155q-30 0 -47.5 19t-17.5 51q0 37 27 127l127 429q9 30 9 44q0 31 -57 31h-31l4 36l199 15l-185 -625q-13 -43 -13 -55q0 -21 18 -21q44 0 123 121z" />
<glyph unicode="m" horiz-adv-x="889" d="M837 131q-49 -71 -76 -98q-51 -48 -99 -48q-35 0 -56.5 19.5t-21.5 50.5q0 21 4 38t24 74l46 142q14 44 14 64q0 37 -39 37q-28 0 -63 -23t-62 -60q-46 -61 -82 -182l-43 -145h-87l80 271q20 63 20 100q0 39 -42 39q-56 0 -116.5 -77t-94.5 -192l-41 -141h-87l102 344 q8 29 8 43q0 32 -56 32h-24l3 36l182 15l-29 -135q53 75 92.5 105t86.5 30q41 0 69 -26.5t28 -66.5q0 -19 -6 -48q87 141 193 141q41 0 67 -25.5t26 -65.5q0 -37 -12 -75l-63 -194q-12 -39 -12 -49t6.5 -17.5t14.5 -7.5q37 0 115 116z" />
<glyph unicode="n" horiz-adv-x="611" d="M562 135q-87 -150 -183 -150q-30 0 -50 21t-20 53q0 30 18 84l53 156q15 46 15 70q0 17 -11.5 29t-28.5 12q-32 0 -69.5 -27.5t-69.5 -75.5q-27 -39 -40.5 -70.5t-33.5 -97.5l-41 -139h-87l102 344q9 33 9 44q0 31 -57 31h-24l4 36l181 15l-29 -135q98 135 185 135 q40 0 68 -28.5t28 -68.5q0 -45 -24 -113l-47 -138q-19 -52 -19 -67q0 -8 5 -13.5t13 -5.5q48 0 124 120z" />
<glyph unicode="o" horiz-adv-x="500" d="M450 281q0 -118 -85 -214q-73 -82 -182 -82q-82 0 -130 50.5t-48 136.5q0 125 84 212q83 86 184 86q73 0 125 -55.5t52 -133.5zM308 122q20 41 33.5 94.5t13.5 92.5q0 58 -23 90.5t-64 32.5q-56 0 -98 -54q-31 -41 -53 -114.5t-22 -135.5q0 -105 89 -105q40 0 69 23.5 t55 75.5z" />
<glyph unicode="p" horiz-adv-x="574" d="M506 307q0 -129 -80 -229q-72 -93 -180 -93q-50 0 -74.5 18t-44.5 70l-49 -163q-11 -39 -11 -50q0 -15 14 -20.5t50 -5.5h12l-4 -36h-240l4 36q51 2 62.5 12t26.5 64l128 434q9 28 9 44q0 31 -57 31h-24l4 36l182 15l-15 -85q70 85 149 85q63 0 105 -52q33 -42 33 -111z M365 144q47 97 47 185q0 40 -20.5 64t-54.5 24q-64 0 -115 -78q-28 -43 -48.5 -105.5t-20.5 -106.5q0 -40 23.5 -66t60.5 -26q77 0 128 109z" />
<glyph unicode="q" d="M390 -202h-246l4 36q58 1 70.5 11t27.5 65l43 145q-65 -69 -138 -69q-30 0 -60 12t-49 31q-42 40 -42 116q0 127 82.5 226t188.5 99q77 0 128 -69l61 69h39l-166 -560q-11 -39 -11 -50q0 -15 14 -20.5t50 -5.5h8zM312 153q18 39 31 92.5t13 90.5q0 42 -22.5 68.5 t-57.5 26.5q-36 0 -71.5 -29.5t-63.5 -82.5q-20 -38 -33 -89t-13 -92q0 -46 21.5 -75t56.5 -29q40 0 76.5 31t62.5 88z" />
<glyph unicode="r" horiz-adv-x="444" d="M433 396q0 -28 -16.5 -46t-42.5 -18q-30 0 -43 22q-4 6 -4 32q0 23 -18 23q-34 0 -86 -78.5t-80 -172.5l-47 -158h-87l102 344q10 36 10 47q0 28 -58 28h-24l4 36l181 15l-23 -116q40 62 75.5 89t77.5 27q34 0 56.5 -21t22.5 -53z" />
<glyph unicode="s" horiz-adv-x="444" d="M356 139q0 -68 -54 -111t-140 -43q-75 0 -119 30.5t-44 82.5q0 29 16.5 48t41.5 19q22 0 36.5 -14.5t14.5 -35.5q0 -13 -3.5 -20.5t-17.5 -22.5q-7 -5 -7 -15q0 -15 24.5 -24.5t62.5 -9.5q52 0 83 24t31 64q0 26 -14.5 40.5t-56.5 31.5q-46 18 -78 34q-69 36 -69 102 q0 65 51 108t130 43q65 0 106.5 -29t41.5 -75q0 -27 -16 -44t-41 -17q-23 0 -37.5 13t-14.5 33q0 17 16 40q5 8 5 14q0 12 -18 19.5t-47 7.5q-44 0 -73 -23t-29 -57q0 -29 16.5 -45t65.5 -33q60 -22 87 -39q50 -34 50 -96z" />
<glyph unicode="t" horiz-adv-x="352" d="M285 140q-35 -57 -50 -77q-26 -35 -64.5 -56.5t-73.5 -21.5q-30 0 -51 22t-21 54q0 27 19 95l75 252h-94l14 47h94l49 166h87l-49 -166h109l-14 -47h-109l-95 -319q-3 -12 -3 -23q0 -28 23 -28q25 0 51.5 26t72.5 96z" />
<glyph unicode="u" horiz-adv-x="611" d="M556 135q-53 -82 -94 -116t-87 -34q-28 0 -46 18.5t-18 47.5q0 26 12 68q-85 -133 -186 -133q-42 0 -68.5 25.5t-26.5 66.5q0 23 4 39.5t27 91.5l40 135q8 29 8 43q0 17 -12.5 24.5t-43.5 7.5h-24l3 36l193 15l-98 -328q-11 -37 -11 -57q0 -18 12.5 -30.5t30.5 -12.5 q53 0 113 74.5t91 178.5l47 160h87l-99 -332q-12 -44 -12 -59q0 -10 5.5 -17t13.5 -7q32 0 109 113z" />
<glyph unicode="v" horiz-adv-x="519" d="M445 391q0 -59 -25 -137.5t-62 -139.5q-82 -130 -186 -130q-54 0 -90.5 37.5t-36.5 93.5q0 49 19 114l34 115q10 30 10 46q0 29 -57 29h-17l3 36l185 15l-68 -231q-24 -80 -24 -124q0 -33 19 -55.5t47 -22.5q39 0 78.5 35t68.5 96q44 90 44 149q0 16 -5 26.5t-23 30.5 q-21 24 -21 46q0 20 13 35t32 15q26 0 44 -23t18 -56z" />
<glyph unicode="w" horiz-adv-x="778" d="M708 391q0 -61 -27 -143.5t-68 -145.5q-40 -61 -81.5 -89t-92.5 -28q-49 0 -78.5 29.5t-29.5 78.5q0 9 2 41q-42 -63 -76 -97q-50 -52 -118 -52q-49 0 -78 26.5t-29 70.5q0 30 17 85l52 177q8 26 8 43t-12.5 24.5t-43.5 7.5h-17l4 36l185 15l-87 -293q-20 -67 -20 -91 q0 -20 15 -34t37 -14q51 0 104 75q60 82 87 175l50 167h87l-65 -216q-23 -81 -23 -130q0 -33 14.5 -52t40.5 -19q70 0 139 128q45 87 45 152q0 16 -5 26t-23 30q-21 24 -21 46q0 21 13.5 35.5t32.5 14.5q26 0 44 -23t18 -56z" />
<glyph unicode="x" horiz-adv-x="500" d="M456 125q-28 -50 -47 -72q-34 -42 -53.5 -55t-47.5 -13q-37 0 -58 23.5t-34 79.5l-15 67l-30 -54q-66 -116 -138 -116q-30 0 -48 17t-18 45q0 26 14.5 42t36.5 16q36 0 43 -39q3 -20 15 -20q26 0 69 79l45 80l-12 58q-20 99 -29 115q-7 15 -21 15q-13 0 -28.5 -16.5 t-53.5 -71.5l-29 21q58 84 75 103q37 41 69 41q31 0 49 -27t31 -92l11 -55l29 52q24 45 31.5 56.5t23.5 28.5q34 37 78 37q25 0 41 -17.5t16 -43.5q0 -25 -13.5 -39.5t-36.5 -14.5q-14 0 -20.5 5t-13.5 20q-6 13 -17 13q-27 0 -63 -67l-44 -81l19 -95q14 -62 24 -83t27 -21 q24 0 64 54l28 42z" />
<glyph unicode="y" horiz-adv-x="500" d="M454 418q0 -25 -13.5 -58.5t-55.5 -115.5q-121 -236 -201 -338q-86 -108 -171 -108q-39 0 -65.5 21.5t-26.5 52.5q0 23 15 38.5t37 15.5q32 0 43 -31q3 -8 3 -39q0 -16 19 -16q43 0 106 77q21 27 57 84q-31 176 -71 324q-16 64 -38 64q-13 0 -25 -18t-40 -78l-31 14 q62 163 130 163q32 0 54.5 -36.5t39.5 -118.5l44 -211q104 165 104 247q0 18 -6 52q-2 12 -2 17q0 20 14.5 35t34.5 15t32.5 -14.5t12.5 -37.5z" />
<glyph unicode="z" horiz-adv-x="463" d="M388 139q-23 -71 -67 -112.5t-95 -41.5q-49 0 -119 32q-65 31 -77 31q-6 0 -7.5 -2.5t-1.5 -14.5q0 -46 -30 -46q-24 0 -24 24q0 48 72 128q43 47 80.5 75t146.5 96q42 26 74 60q-33 -8 -51 -8q-34 0 -92 20q-45 14 -60 14q-37 0 -82 -80l-33 17q71 139 165 139 q27 0 84 -28q46 -23 72 -23q11 0 16.5 5.5t9.5 20.5q7 25 24 25q10 0 17 -6.5t7 -16.5q0 -20 -22 -57.5t-57 -76.5q-37 -42 -73 -70.5t-94 -61.5q-59 -34 -81.5 -50.5t-39.5 -38.5q31 9 49 9q31 0 101 -24q45 -16 67 -16q47 0 86 90z" />
<glyph unicode="{" horiz-adv-x="333" d="M169 -79l-8 -29h-21q-41 0 -64.5 23t-23.5 64q0 35 17 95l23 88q13 48 13 69q0 46 -49 62l7 28q49 14 70.5 41t36.5 92l32 118q26 94 68 123q39 27 101 27h10l-8 -29q-41 -5 -64 -33.5t-42 -99.5l-35 -128q-17 -59 -40 -86t-68 -39q52 -20 52 -65q0 -22 -13 -67l-29 -111 q-15 -54 -15 -84q0 -56 50 -59z" />
<glyph unicode="|" horiz-adv-x="606" d="M338 -108h-80v830h80v-830z" />
<glyph unicode="}" horiz-adv-x="333" d="M227 321l-8 -28q-48 -14 -70 -41t-38 -92l-31 -118q-26 -94 -69 -123q-37 -27 -101 -27h-8l8 29q41 5 63.5 33.5t41.5 99.5l35 128q16 58 39.5 85.5t67.5 39.5q-51 20 -51 65q0 22 12 67l30 111q15 54 15 85q0 25 -13.5 40.5t-36.5 17.5l8 29h21q40 0 64.5 -23t24.5 -60 q0 -32 -18 -99l-23 -88q-13 -48 -13 -69q0 -48 50 -62z" />
<glyph unicode="~" horiz-adv-x="606" d="M545 272q-28 -49 -66 -78t-74 -29q-32 0 -99 31l-46 23q-44 21 -54.5 24.5t-25.5 3.5q-43 0 -86 -65l-53 38q28 49 66 78t74 29q32 0 99 -32l46 -22q57 -28 80 -28q43 0 86 65z" />
<glyph unicode="&#xa2;" d="M428 113q-90 -133 -206 -127l-54 -121h-43l57 127q-56 16 -88.5 63t-32.5 112q0 121 81.5 211.5t189.5 90.5q27 0 56 -12l55 124h43l-64 -145q35 -31 35 -73q0 -32 -18.5 -53t-47.5 -21q-18 0 -30 9l-117 -263q48 5 79 25.5t74 74.5zM393 400q0 13 -19.5 22.5t-45.5 9.5 q-74 0 -127 -106q-45 -90 -45 -170q0 -79 49 -110l139 311q10 25 34 30q10 2 12.5 4t2.5 9z" />
<glyph unicode="&#xa3;" d="M522 136q-31 -78 -77 -114.5t-111 -36.5q-38 0 -69 12.5t-79 47.5q-31 -34 -54.5 -47t-55.5 -13q-37 0 -60.5 22.5t-23.5 57.5t25 60t62 25q36 0 90 -21q15 48 15 93q0 36 -8 103h-126l5 43h117q-2 35 -2 56q0 129 65 204.5t165 75.5q63 0 104 -33.5t41 -85.5 q0 -39 -20 -63.5t-51 -24.5q-25 0 -40.5 15t-15.5 38q0 32 30 53q15 11 18.5 15.5t3.5 11.5q0 16 -16.5 26t-43.5 10q-137 0 -137 -252q0 -26 1 -46h136l-5 -43h-132q0 -112 -51 -220q69 -36 128 -36q84 0 137 81zM149 75q-41 34 -73 34q-19 0 -32 -12.5t-13 -31.5t13 -31 t34 -12q46 0 71 53z" />
<glyph unicode="&#xa5;" d="M618 657q-46 -10 -69 -28.5t-70 -83.5l-126 -177h120l-5 -43h-146l-1 -2l-21 -78h146l-5 -43h-152l-22 -79q-9 -41 -9 -49q0 -16 15.5 -21.5t63.5 -5.5h27l-5 -47h-317l5 47h13q69 0 83 14q7 6 9.5 13.5t13.5 48.5l22 79h-148l5 43h154l21 78l-1 2h-146l5 43h126l-80 220 q-23 69 -80 69h-4l5 47h256l-5 -47h-14q-62 0 -62 -24q0 -10 11 -39l76 -215l128 185q26 36 26 55q0 17 -17.5 27.5t-47.5 10.5h-9l5 47h231z" />
<glyph unicode="&#xa9;" horiz-adv-x="747" d="M723 339q0 -146 -104 -249.5t-250 -103.5t-249.5 103.5t-103.5 249.5t103.5 250t249.5 104t250 -104t104 -250zM679 339q0 128 -91 219t-219 91t-218.5 -91t-90.5 -219t90.5 -218.5t218.5 -90.5t219 90.5t91 218.5zM560 523l-29 -149h-27q-5 71 -28.5 102.5t-67.5 31.5 q-46 0 -82.5 -38t-53.5 -90t-15 -103q2 -47 28.5 -76t76.5 -29q45 0 75.5 22t57.5 77l28 -11q-51 -118 -171 -118q-77 0 -125 42t-50 112q-2 92 67 165.5t160 73.5q60 0 100 -41l32 29h24z" />
<glyph unicode="&#xad;" horiz-adv-x="333" d="M237 195h-205l22 83h205z" />
<glyph unicode="&#xae;" horiz-adv-x="747" d="M723 339q0 -146 -104 -249.5t-250 -103.5t-249.5 103.5t-103.5 249.5t103.5 250t249.5 104t250 -104t104 -250zM679 339q0 128 -91 219t-219 91t-218.5 -91t-90.5 -219t90.5 -218.5t218.5 -90.5t219 90.5t91 218.5zM575 445q1 -26 -14.5 -48.5t-42.5 -35.5 q-26 -13 -77 -18q52 -21 53 -82v-19v-26q0 -29 15 -29q11 0 18.5 10t17.5 38l26 -9q-16 -43 -35.5 -61.5t-48.5 -18.5q-28 0 -46 18t-19 47q0 12 2 51q1 11 1 28q-1 24 -15.5 34t-48.5 10h-35l-31 -114q-2 -8 -3.5 -15.5t-1.5 -9.5q1 -7 9 -9.5t33 -2.5h16l-3 -29h-183l3 29 h11q30 0 36 6q5 4 12 31l66 245q4 20 4 25q0 7 -8 9.5t-33 2.5h-16l3 29h183q150 0 152 -86zM499 447q-2 55 -73 55h-28q-18 0 -24 -5t-11 -24l-29 -110h40q57 0 82 14q45 25 43 70z" />
<glyph unicode="&#xb4;" horiz-adv-x="333" d="M447 660q0 -22 -25 -39l-159 -96h-39l138 140q31 30 50 30q14 0 24.5 -10.5t10.5 -24.5z" />
<glyph unicode="&#x2000;" horiz-adv-x="396" />
<glyph unicode="&#x2001;" horiz-adv-x="792" />
<glyph unicode="&#x2002;" horiz-adv-x="396" />
<glyph unicode="&#x2003;" horiz-adv-x="792" />
<glyph unicode="&#x2004;" horiz-adv-x="264" />
<glyph unicode="&#x2005;" horiz-adv-x="198" />
<glyph unicode="&#x2006;" horiz-adv-x="132" />
<glyph unicode="&#x2007;" horiz-adv-x="132" />
<glyph unicode="&#x2008;" horiz-adv-x="99" />
<glyph unicode="&#x2009;" horiz-adv-x="158" />
<glyph unicode="&#x200a;" horiz-adv-x="44" />
<glyph unicode="&#x2010;" horiz-adv-x="333" d="M237 195h-205l22 83h205z" />
<glyph unicode="&#x2011;" horiz-adv-x="333" d="M237 195h-205l22 83h205z" />
<glyph unicode="&#x2013;" horiz-adv-x="500" d="M502 206h-520l16 61h520z" />
<glyph unicode="&#x2014;" horiz-adv-x="1000" d="M1002 206h-1020l16 61h1020z" />
<glyph unicode="&#x2018;" horiz-adv-x="204" d="M252 706q-113 -52 -127 -130h17q25 0 40.5 -14.5t15.5 -38.5q0 -26 -19.5 -44t-47.5 -18q-30 0 -50 23t-20 57q0 58 48.5 111t129.5 85z" />
<glyph unicode="&#x2019;" horiz-adv-x="204" d="M230 629q0 -58 -48.5 -111t-129.5 -85l-13 31q113 52 127 131q-7 -1 -17 -1q-25 0 -40.5 14.5t-15.5 38.5q0 26 19.5 44t47.5 18q30 0 50 -23t20 -57z" />
<glyph unicode="&#x201c;" horiz-adv-x="389" d="M254 706q-113 -52 -127 -130h17q25 0 40.5 -14.5t15.5 -38.5q0 -26 -19.5 -44t-47.5 -18q-30 0 -50 23t-20 57q0 58 48.5 111t129.5 85zM432 706q-113 -52 -127 -130h17q25 0 40.5 -14.5t15.5 -38.5q0 -26 -19.5 -44t-47.5 -18q-30 0 -50 23t-20 57q0 58 48.5 111 t129.5 85z" />
<glyph unicode="&#x201d;" horiz-adv-x="389" d="M229 657q0 -58 -48 -111t-130 -85l-13 31q113 53 127 131q-7 -1 -17 -1q-25 0 -40.5 14.5t-15.5 38.5q0 26 19.5 44t47.5 18q30 0 50 -23t20 -57zM407 657q0 -58 -48.5 -111t-129.5 -85l-13 31q112 52 127 131q-7 -1 -17 -1q-25 0 -40.5 14.5t-15.5 38.5q0 26 19.5 44 t47.5 18q30 0 50 -23t20 -57z" />
<glyph unicode="&#x2022;" horiz-adv-x="606" d="M451 386q0 -71 -49.5 -120t-120.5 -49q-68 0 -117.5 50t-49.5 119q0 70 49.5 119t119.5 49t119 -49t49 -119z" />
<glyph unicode="&#x2026;" horiz-adv-x="1000" d="M179 47q0 -26 -18.5 -44t-44.5 -18q-25 0 -43 18.5t-18 43.5t18.5 43.5t43.5 18.5t43.5 -18.5t18.5 -43.5zM845 47q0 -26 -18.5 -44t-44.5 -18q-25 0 -43 18.5t-18 43.5t18.5 43.5t43.5 18.5t43.5 -18.5t18.5 -43.5zM512 47q0 -26 -18.5 -44t-44.5 -18q-25 0 -43 18.5 t-18 43.5t18 43.5t44 18.5t44 -18.5t18 -43.5z" />
<glyph unicode="&#x202f;" horiz-adv-x="158" />
<glyph unicode="&#x205f;" horiz-adv-x="198" />
<glyph unicode="&#x20ac;" d="M473 0l-31 -1l-24 55q-49 -38 -81.5 -53t-72.5 -16q-97 0 -166 63t-69 166q0 9 2 39h-60l35 57h34q5 28 21 75h-56l35 57h44q29 61 66 107q132 164 274 164q40 0 66.5 -13.5t58.5 -51.5l49 57h31l-47 -204h-36q-6 69 -19 100t-43.5 49t-69.5 18q-57 0 -108 -40t-89 -115 q-11 -20 -30 -71h301l-35 -57h-285q-6 -18 -21 -75h267l-35 -57h-244q-8 -41 -8 -79q0 -69 41.5 -106.5t106.5 -37.5q39 1 78 20.5t65 50.5q29 34 65 102l36 1z" />
<glyph unicode="&#x2122;" horiz-adv-x="945" d="M544 583l-27 3q1 24 0 35q-1 39 -15.5 56t-49.5 17h-8q-11 0 -14 -4t-8 -21l-65 -242q-4 -18 -4 -23q1 -7 8.5 -9.5t31.5 -2.5h21l-4 -27h-188l3 27h13q35 0 41 6q5 5 11 29l67 249q0 2 1.5 6.5t1.5 5.5q0 6 -16 6h-7q-36 1 -58 -19t-60 -87l-26 4l45 130h326zM1002 365 h-172l2 27h11q28 0 34 6q4 3 11 29l60 225l-190 -287h-24l-40 281l-46 -173q-11 -47 -11 -56q1 -25 48 -25l-2 -27h-137l2 27q29 1 41 15.5t26 65.5l49 187q5 18 5 23q0 7 -7.5 9t-33.5 2h-15l3 28h134l35 -258l173 258h118l-2 -28h-10q-28 0 -36 -5q-3 -3 -10 -29l-62 -233 q-5 -17 -5 -23q0 -7 8 -9.5t32 -2.5h14z" />
</font>
</defs>
</svg>
